<svg xmlns="http://www.w3.org/2000/svg" width="16" height="16" viewBox="0 0 16 16"><g><g><path fill="#fff" d="M9.067 14.4c-.134 0-.134 0-.267-.133-.133-.134-.133-.134-.133-.267v-2.4c-.534-.133-.934-.4-1.2-.8-.4-.4-.534-.8-.534-1.333v-.534c-.933 0-1.866-.4-2.533-1.066C3.733 7.2 3.333 6.4 3.333 5.333c0-1.066.4-2 1.2-2.666C5.467 2 6.533 1.733 8 1.6c.267 0 .667.133 1.067.267.133 0 .266.133.266.266 0 .934-.266 1.734-.666 2.534.4.4.666.933.666 1.333 0 .133 0 .4-.133.533-.133.134-.4.134-.533.134-.134 0-.267-.134-.534-.267C8 6.133 7.6 6 7.467 6c-.134 0-.4.133-.534.267-.133.133-.266.266-.266.533 0 .4.133.667.4.933.4.134.8.267 1.2.267H9.6c.667 0 1.2.267 1.733.8.4.4.667.933.667 1.6 0 .933-.4 1.867-.933 2.8-.8.8-1.467 1.2-2 1.2zM0 8c0 2.267.933 4 2.4 5.6C3.867 15.2 5.733 16 8 16c2.267 0 4.133-.8 5.6-2.4C15.2 12.133 16 10.267 16 8c0-2.267-.8-4.133-2.4-5.6C12.133.8 10.267 0 8 0 5.733 0 3.867.8 2.4 2.4.8 3.867 0 5.733 0 8z"/></g></g></svg>